<svg width="16.666016" height="17.916992" viewBox="0 0 16.666 17.917" fill="none" xmlns="http://www.w3.org/2000/svg" xmlns:xlink="http://www.w3.org/1999/xlink">
	<desc>
			Created with Pixso.
	</desc>
	<defs/>
	<path id="Vector" d="M8.33301 0C5.80176 0 3.75 2.05176 3.75 4.58301C3.75 7.11426 5.80176 9.16699 8.33301 9.16699C10.8647 9.16699 12.9165 7.11426 12.9165 4.58301C12.9165 2.05176 10.8647 0 8.33301 0ZM5.4165 4.58301C5.4165 2.97266 6.72217 1.66699 8.33301 1.66699C9.94385 1.66699 11.25 2.97266 11.25 4.58301C11.25 6.19434 9.94385 7.5 8.33301 7.5C6.72217 7.5 5.4165 6.19434 5.4165 4.58301ZM3.41992 10C2.32715 10 1.1958 10.5469 0.689453 11.6641C0.398438 12.3057 0.0859375 13.168 0.00878906 14.0664C-0.0610352 14.8857 0.278809 15.7402 1.0459 16.2158C2.17383 16.917 4.4668 17.917 8.33301 17.917C12.1997 17.917 14.4927 16.917 15.6206 16.2158C16.3877 15.7402 16.7275 14.8857 16.6572 14.0664C16.5801 13.168 16.2681 12.3057 15.9771 11.6641C15.4702 10.5469 14.3394 10 13.2466 10L3.41992 10ZM2.20703 12.3525C2.39062 11.9482 2.84229 11.667 3.41992 11.667L13.2466 11.667C13.8242 11.667 14.2759 11.9482 14.459 12.3525C14.7129 12.9111 14.9424 13.5781 14.9971 14.209C15.021 14.4912 14.9033 14.7002 14.7412 14.8008C13.8833 15.333 11.896 16.25 8.33301 16.25C4.77002 16.25 2.78271 15.333 1.92529 14.8008C1.76318 14.7002 1.64551 14.4912 1.66943 14.209C1.72363 13.5781 1.95361 12.9111 2.20703 12.3525Z" fill="#424551" fill-opacity="1.000000" fill-rule="evenodd"/>
</svg>
