<svg width="136.000000" height="114.681641" viewBox="0 0 136 114.682" fill="none" xmlns="http://www.w3.org/2000/svg" xmlns:xlink="http://www.w3.org/1999/xlink">
	<desc>
			Created with Pixso.
	</desc>
	<defs/>
	<path id="Vector" d="M3.88037 33.7051C3.88037 34.9766 3.04883 35.9297 1.94043 35.9297C0.831543 35.9297 0 34.9766 0 33.7051C0 32.4316 0.831543 31.4785 1.94043 31.4785C3.04883 31.4785 3.88037 32.5391 3.88037 33.7051Z" fill="#FFCF2D" fill-opacity="1.000000" fill-rule="nonzero"/>
	<path id="Vector" d="M20.4185 33.7051C20.4185 34.9766 19.5869 35.9297 18.4785 35.9297C17.3696 35.9297 16.5381 34.9766 16.5381 33.7051C16.5381 32.4316 17.3696 31.4785 18.4785 31.4785C19.4946 31.4785 20.4185 32.5391 20.4185 33.7051Z" fill="#FFCF2D" fill-opacity="1.000000" fill-rule="nonzero"/>
	<path id="Vector" d="M36.8643 33.7051C36.8643 34.9766 36.0327 35.9297 34.9243 35.9297C33.8154 35.9297 32.9839 34.9766 32.9839 33.7051C32.9839 32.4316 33.8154 31.4785 34.9243 31.4785C36.0327 31.4785 36.8643 32.5391 36.8643 33.7051Z" fill="#FFCF2D" fill-opacity="1.000000" fill-rule="nonzero"/>
	<path id="Vector" d="M53.4023 33.7051C53.4023 34.9766 52.5708 35.9297 51.4624 35.9297C50.3535 35.9297 49.522 34.9766 49.522 33.7051C49.522 32.4316 50.3535 31.4785 51.4624 31.4785C52.5708 31.4785 53.4023 32.5391 53.4023 33.7051Z" fill="#FFCF2D" fill-opacity="1.000000" fill-rule="nonzero"/>
	<path id="Vector" d="M69.9399 33.7051C69.9399 34.9766 69.1084 35.9297 68 35.9297C66.8911 35.9297 66.0596 34.9766 66.0596 33.7051C66.0596 32.4316 66.8911 31.4785 68 31.4785C69.0161 31.4785 69.9399 32.5391 69.9399 33.7051Z" fill="#FFCF2D" fill-opacity="1.000000" fill-rule="nonzero"/>
	<path id="Vector" d="M86.478 33.7051C86.478 34.9766 85.6465 35.9297 84.5381 35.9297C83.4292 35.9297 82.5977 34.9766 82.5977 33.7051C82.5977 32.4316 83.4292 31.4785 84.5381 31.4785C85.6465 31.4785 86.478 32.5391 86.478 33.7051Z" fill="#FFCF2D" fill-opacity="1.000000" fill-rule="nonzero"/>
	<path id="Vector" d="M102.924 33.7051C102.924 34.9766 102.092 35.9297 100.984 35.9297C99.875 35.9297 99.0435 34.9766 99.0435 33.7051C99.0435 32.4316 99.875 31.4785 100.984 31.4785C102.092 31.4785 102.924 32.5391 102.924 33.7051Z" fill="#FFCF2D" fill-opacity="1.000000" fill-rule="nonzero"/>
	<path id="Vector" d="M119.462 33.7051C119.462 34.9766 118.63 35.9297 117.522 35.9297C116.413 35.9297 115.582 34.9766 115.582 33.7051C115.582 32.4316 116.413 31.4785 117.522 31.4785C118.63 31.4785 119.462 32.5391 119.462 33.7051Z" fill="#FFCF2D" fill-opacity="1.000000" fill-rule="nonzero"/>
	<path id="Vector" d="M136 33.7051C136 34.9766 135.168 35.9297 134.06 35.9297C132.951 35.9297 132.12 34.9766 132.12 33.7051C132.12 32.4316 132.951 31.4785 134.06 31.4785C135.076 31.4785 136 32.5391 136 33.7051Z" fill="#FFCF2D" fill-opacity="1.000000" fill-rule="nonzero"/>
	<path id="Vector" d="M3.88037 49.498C3.88037 50.7695 3.04883 51.7227 1.94043 51.7227C0.831543 51.7227 0 50.7695 0 49.498C0 48.2246 0.831543 47.2715 1.94043 47.2715C3.04883 47.2715 3.88037 48.2246 3.88037 49.498Z" fill="#FFCF2D" fill-opacity="1.000000" fill-rule="nonzero"/>
	<path id="Vector" d="M20.4185 49.498C20.4185 50.7695 19.5869 51.7227 18.4785 51.7227C17.3696 51.7227 16.5381 50.7695 16.5381 49.498C16.5381 48.2246 17.3696 47.2715 18.4785 47.2715C19.4946 47.2715 20.4185 48.2246 20.4185 49.498Z" fill="#FFCF2D" fill-opacity="1.000000" fill-rule="nonzero"/>
	<path id="Vector" d="M36.8643 49.498C36.8643 50.7695 36.0327 51.7227 34.9243 51.7227C33.8154 51.7227 32.9839 50.7695 32.9839 49.498C32.9839 48.2246 33.8154 47.2715 34.9243 47.2715C36.0327 47.2715 36.8643 48.2246 36.8643 49.498Z" fill="#FFCF2D" fill-opacity="1.000000" fill-rule="nonzero"/>
	<path id="Vector" d="M53.4023 49.498C53.4023 50.7695 52.5708 51.7227 51.4624 51.7227C50.3535 51.7227 49.522 50.7695 49.522 49.498C49.522 48.2246 50.3535 47.2715 51.4624 47.2715C52.5708 47.2715 53.4023 48.2246 53.4023 49.498Z" fill="#FFCF2D" fill-opacity="1.000000" fill-rule="nonzero"/>
	<path id="Vector" d="M69.9399 49.498C69.9399 50.7695 69.1084 51.7227 68 51.7227C66.8911 51.7227 66.0596 50.7695 66.0596 49.498C66.0596 48.2246 66.8911 47.2715 68 47.2715C69.0161 47.2715 69.9399 48.2246 69.9399 49.498Z" fill="#FFCF2D" fill-opacity="1.000000" fill-rule="nonzero"/>
	<path id="Vector" d="M86.478 49.498C86.478 50.7695 85.6465 51.7227 84.5381 51.7227C83.4292 51.7227 82.5977 50.7695 82.5977 49.498C82.5977 48.2246 83.4292 47.2715 84.5381 47.2715C85.6465 47.2715 86.478 48.2246 86.478 49.498Z" fill="#FFCF2D" fill-opacity="1.000000" fill-rule="nonzero"/>
	<path id="Vector" d="M102.924 49.498C102.924 50.7695 102.092 51.7227 100.984 51.7227C99.875 51.7227 99.0435 50.7695 99.0435 49.498C99.0435 48.2246 99.875 47.2715 100.984 47.2715C102.092 47.2715 102.924 48.2246 102.924 49.498Z" fill="#FFCF2D" fill-opacity="1.000000" fill-rule="nonzero"/>
	<path id="Vector" d="M119.462 49.498C119.462 50.7695 118.63 51.7227 117.522 51.7227C116.413 51.7227 115.582 50.7695 115.582 49.498C115.582 48.2246 116.413 47.2715 117.522 47.2715C118.63 47.2715 119.462 48.2246 119.462 49.498Z" fill="#FFCF2D" fill-opacity="1.000000" fill-rule="nonzero"/>
	<path id="Vector" d="M136 49.498C136 50.7695 135.168 51.7227 134.06 51.7227C132.951 51.7227 132.12 50.7695 132.12 49.498C132.12 48.2246 132.951 47.2715 134.06 47.2715C135.076 47.2715 136 48.2246 136 49.498Z" fill="#FFCF2D" fill-opacity="1.000000" fill-rule="nonzero"/>
	<path id="Vector" d="M3.88037 2.22656C3.88037 3.49805 3.04883 4.45117 1.94043 4.45117C0.831543 4.45117 0 3.49805 0 2.22656C0 0.953125 0.831543 0 1.94043 0C3.04883 0 3.88037 0.953125 3.88037 2.22656Z" fill="#FFCF2D" fill-opacity="1.000000" fill-rule="nonzero"/>
	<path id="Vector" d="M20.4185 2.22656C20.4185 3.49805 19.5869 4.45117 18.4785 4.45117C17.3696 4.45117 16.5381 3.49805 16.5381 2.22656C16.5381 0.953125 17.3696 0 18.4785 0C19.4946 0 20.4185 0.953125 20.4185 2.22656Z" fill="#FFCF2D" fill-opacity="1.000000" fill-rule="nonzero"/>
	<path id="Vector" d="M36.8643 2.22656C36.8643 3.49805 36.0327 4.45117 34.9243 4.45117C33.8154 4.45117 32.9839 3.49805 32.9839 2.22656C32.9839 0.953125 33.9077 0 34.9243 0C36.0327 0 36.8643 0.953125 36.8643 2.22656Z" fill="#FFCF2D" fill-opacity="1.000000" fill-rule="nonzero"/>
	<path id="Vector" d="M53.4023 2.22656C53.4023 3.49805 52.5708 4.45117 51.4624 4.45117C50.3535 4.45117 49.522 3.49805 49.522 2.22656C49.522 0.953125 50.4458 0 51.4624 0C52.4785 0 53.4023 0.953125 53.4023 2.22656Z" fill="#FFCF2D" fill-opacity="1.000000" fill-rule="nonzero"/>
	<path id="Vector" d="M69.9399 2.22656C69.9399 3.49805 69.1084 4.45117 68 4.45117C66.8911 4.45117 66.0596 3.49805 66.0596 2.22656C66.0596 0.953125 66.8911 0 68 0C69.0161 0 69.9399 0.953125 69.9399 2.22656Z" fill="#FFCF2D" fill-opacity="1.000000" fill-rule="nonzero"/>
	<path id="Vector" d="M86.478 2.22656C86.478 3.49805 85.6465 4.45117 84.5381 4.45117C83.4292 4.45117 82.5977 3.49805 82.5977 2.22656C82.5977 0.953125 83.4292 0 84.5381 0C85.6465 0 86.478 0.953125 86.478 2.22656Z" fill="#FFCF2D" fill-opacity="1.000000" fill-rule="nonzero"/>
	<path id="Vector" d="M102.924 2.22656C102.924 3.49805 102.092 4.45117 100.984 4.45117C99.875 4.45117 99.0435 3.49805 99.0435 2.22656C99.0435 0.953125 99.875 0 100.984 0C102.092 0 102.924 0.953125 102.924 2.22656Z" fill="#FFCF2D" fill-opacity="1.000000" fill-rule="nonzero"/>
	<path id="Vector" d="M119.462 2.22656C119.462 3.49805 118.63 4.45117 117.522 4.45117C116.413 4.45117 115.582 3.49805 115.582 2.22656C115.582 0.953125 116.413 0 117.522 0C118.63 0 119.462 0.953125 119.462 2.22656Z" fill="#FFCF2D" fill-opacity="1.000000" fill-rule="nonzero"/>
	<path id="Vector" d="M136 2.22656C136 3.49805 135.168 4.45117 134.06 4.45117C132.951 4.45117 132.12 3.49805 132.12 2.22656C132.12 0.953125 132.951 0 134.06 0C135.076 0 136 0.953125 136 2.22656Z" fill="#FFCF2D" fill-opacity="1.000000" fill-rule="nonzero"/>
	<path id="Vector" d="M3.88037 18.0195C3.88037 19.291 3.04883 20.2441 1.94043 20.2441C0.831543 20.2441 0 19.1855 0 18.0195C0 16.7461 0.831543 15.793 1.94043 15.793C3.04883 15.793 3.88037 16.7461 3.88037 18.0195Z" fill="#FFCF2D" fill-opacity="1.000000" fill-rule="nonzero"/>
	<path id="Vector" d="M20.4185 18.0195C20.4185 19.291 19.5869 20.2441 18.4785 20.2441C17.3696 20.2441 16.5381 19.291 16.5381 18.0195C16.5381 16.7461 17.3696 15.793 18.4785 15.793C19.4946 15.793 20.4185 16.7461 20.4185 18.0195Z" fill="#FFCF2D" fill-opacity="1.000000" fill-rule="nonzero"/>
	<path id="Vector" d="M36.8643 18.0195C36.8643 19.291 36.0327 20.2441 34.9243 20.2441C33.8154 20.2441 32.9839 19.291 32.9839 18.0195C32.9839 16.7461 33.8154 15.793 34.9243 15.793C36.0327 15.793 36.8643 16.7461 36.8643 18.0195Z" fill="#FFCF2D" fill-opacity="1.000000" fill-rule="nonzero"/>
	<path id="Vector" d="M53.4023 18.0195C53.4023 19.291 52.5708 20.2441 51.4624 20.2441C50.3535 20.2441 49.522 19.291 49.522 18.0195C49.522 16.7461 50.3535 15.793 51.4624 15.793C52.5708 15.793 53.4023 16.7461 53.4023 18.0195Z" fill="#FFCF2D" fill-opacity="1.000000" fill-rule="nonzero"/>
	<path id="Vector" d="M69.9399 18.0195C69.9399 19.291 69.1084 20.2441 68 20.2441C66.8911 20.2441 66.0596 19.291 66.0596 18.0195C66.0596 16.7461 66.8911 15.793 68 15.793C69.0161 15.793 69.9399 16.7461 69.9399 18.0195Z" fill="#FFCF2D" fill-opacity="1.000000" fill-rule="nonzero"/>
	<path id="Vector" d="M86.478 18.0195C86.478 19.291 85.6465 20.2441 84.5381 20.2441C83.4292 20.2441 82.5977 19.291 82.5977 18.0195C82.5977 16.7461 83.4292 15.793 84.5381 15.793C85.6465 15.793 86.478 16.7461 86.478 18.0195Z" fill="#FFCF2D" fill-opacity="1.000000" fill-rule="nonzero"/>
	<path id="Vector" d="M102.924 18.0195C102.924 19.291 102.092 20.2441 100.984 20.2441C99.875 20.2441 99.0435 19.291 99.0435 18.0195C99.0435 16.7461 99.875 15.793 100.984 15.793C102.092 15.793 102.924 16.7461 102.924 18.0195Z" fill="#FFCF2D" fill-opacity="1.000000" fill-rule="nonzero"/>
	<path id="Vector" d="M119.462 18.0195C119.462 19.291 118.63 20.2441 117.522 20.2441C116.413 20.2441 115.582 19.291 115.582 18.0195C115.582 16.7461 116.413 15.793 117.522 15.793C118.63 15.793 119.462 16.7461 119.462 18.0195Z" fill="#FFCF2D" fill-opacity="1.000000" fill-rule="nonzero"/>
	<path id="Vector" d="M136 18.0195C136 19.291 135.168 20.2441 134.06 20.2441C132.951 20.2441 132.12 19.291 132.12 18.0195C132.12 16.7461 132.951 15.793 134.06 15.793C135.076 15.793 136 16.7461 136 18.0195Z" fill="#FFCF2D" fill-opacity="1.000000" fill-rule="nonzero"/>
	<path id="Vector" d="M3.88037 65.1855C3.88037 66.457 3.04883 67.4102 1.94043 67.4102C0.831543 67.4102 0 66.457 0 65.1855C0 63.9121 0.831543 62.959 1.94043 62.959C3.04883 62.959 3.88037 64.0195 3.88037 65.1855Z" fill="#FFCF2D" fill-opacity="1.000000" fill-rule="nonzero"/>
	<path id="Vector" d="M20.4185 65.1855C20.4185 66.457 19.5869 67.4102 18.4785 67.4102C17.3696 67.4102 16.5381 66.457 16.5381 65.1855C16.5381 63.9121 17.3696 62.959 18.4785 62.959C19.4946 62.959 20.4185 64.0195 20.4185 65.1855Z" fill="#FFCF2D" fill-opacity="1.000000" fill-rule="nonzero"/>
	<path id="Vector" d="M36.8643 65.1855C36.8643 66.457 36.0327 67.4102 34.9243 67.4102C33.8154 67.4102 32.9839 66.457 32.9839 65.1855C32.9839 63.9121 33.8154 62.959 34.9243 62.959C36.0327 62.959 36.8643 64.0195 36.8643 65.1855Z" fill="#FFCF2D" fill-opacity="1.000000" fill-rule="nonzero"/>
	<path id="Vector" d="M53.4023 65.1855C53.4023 66.457 52.5708 67.4102 51.4624 67.4102C50.3535 67.4102 49.522 66.457 49.522 65.1855C49.522 63.9121 50.3535 62.959 51.4624 62.959C52.5708 62.959 53.4023 64.0195 53.4023 65.1855Z" fill="#FFCF2D" fill-opacity="1.000000" fill-rule="nonzero"/>
	<path id="Vector" d="M69.9399 65.1855C69.9399 66.457 69.1084 67.4102 68 67.4102C66.8911 67.4102 66.0596 66.457 66.0596 65.1855C66.0596 63.9121 66.8911 62.959 68 62.959C69.0161 62.959 69.9399 64.0195 69.9399 65.1855Z" fill="#FFCF2D" fill-opacity="1.000000" fill-rule="nonzero"/>
	<path id="Vector" d="M86.478 65.1855C86.478 66.457 85.6465 67.4102 84.5381 67.4102C83.4292 67.4102 82.5977 66.457 82.5977 65.1855C82.5977 63.9121 83.4292 62.959 84.5381 62.959C85.6465 62.959 86.478 64.0195 86.478 65.1855Z" fill="#FFCF2D" fill-opacity="1.000000" fill-rule="nonzero"/>
	<path id="Vector" d="M102.924 65.1855C102.924 66.457 102.092 67.4102 100.984 67.4102C99.875 67.4102 99.0435 66.457 99.0435 65.1855C99.0435 63.9121 99.875 62.959 100.984 62.959C102.092 62.959 102.924 64.0195 102.924 65.1855Z" fill="#FFCF2D" fill-opacity="1.000000" fill-rule="nonzero"/>
	<path id="Vector" d="M119.462 65.1855C119.462 66.457 118.63 67.4102 117.522 67.4102C116.413 67.4102 115.582 66.457 115.582 65.1855C115.582 63.9121 116.413 62.959 117.522 62.959C118.63 62.959 119.462 64.0195 119.462 65.1855Z" fill="#FFCF2D" fill-opacity="1.000000" fill-rule="nonzero"/>
	<path id="Vector" d="M136 65.1855C136 66.457 135.168 67.4102 134.06 67.4102C132.951 67.4102 132.12 66.457 132.12 65.1855C132.12 63.9121 132.951 62.959 134.06 62.959C135.076 62.959 136 64.0195 136 65.1855Z" fill="#FFCF2D" fill-opacity="1.000000" fill-rule="nonzero"/>
	<path id="Vector" d="M3.88037 80.9785C3.88037 82.25 3.04883 83.2031 1.94043 83.2031C0.831543 83.2031 0 82.25 0 80.9785C0 79.7051 0.831543 78.752 1.94043 78.752C3.04883 78.752 3.88037 79.7051 3.88037 80.9785Z" fill="#FFCF2D" fill-opacity="1.000000" fill-rule="nonzero"/>
	<path id="Vector" d="M20.4185 80.9785C20.4185 82.25 19.5869 83.2031 18.4785 83.2031C17.3696 83.2031 16.5381 82.25 16.5381 80.9785C16.5381 79.7051 17.3696 78.752 18.4785 78.752C19.4946 78.752 20.4185 79.7051 20.4185 80.9785Z" fill="#FFCF2D" fill-opacity="1.000000" fill-rule="nonzero"/>
	<path id="Vector" d="M36.8643 80.9785C36.8643 82.25 36.0327 83.2031 34.9243 83.2031C33.8154 83.2031 32.9839 82.25 32.9839 80.9785C32.9839 79.7051 33.8154 78.752 34.9243 78.752C36.0327 78.752 36.8643 79.7051 36.8643 80.9785Z" fill="#FFCF2D" fill-opacity="1.000000" fill-rule="nonzero"/>
	<path id="Vector" d="M53.4023 80.9785C53.4023 82.207 52.5337 83.2031 51.4624 83.2031C50.3906 83.2031 49.522 82.207 49.522 80.9785C49.522 79.748 50.3906 78.752 51.4624 78.752C52.5337 78.752 53.4023 79.748 53.4023 80.9785Z" fill="#FFCF2D" fill-opacity="1.000000" fill-rule="evenodd"/>
	<path id="Vector" d="M69.9399 80.9766C69.9399 82.248 69.1084 83.2012 68 83.2012C66.8911 83.2012 66.0596 82.248 66.0596 80.9766C66.0596 79.7031 66.8911 78.75 68 78.75C69.0161 78.75 69.9399 79.7031 69.9399 80.9766Z" fill="#FFCF2D" fill-opacity="1.000000" fill-rule="nonzero"/>
	<path id="Vector" d="M86.478 80.9785C86.478 82.25 85.6465 83.2031 84.5381 83.2031C83.4292 83.2031 82.5977 82.25 82.5977 80.9785C82.5977 79.7051 83.4292 78.752 84.5381 78.752C85.6465 78.752 86.478 79.7051 86.478 80.9785Z" fill="#FFCF2D" fill-opacity="1.000000" fill-rule="nonzero"/>
	<path id="Vector" d="M102.924 80.9785C102.924 82.25 102.092 83.2031 100.984 83.2031C99.875 83.2031 99.0435 82.25 99.0435 80.9785C99.0435 79.7051 99.875 78.752 100.984 78.752C102.092 78.752 102.924 79.7051 102.924 80.9785Z" fill="#FFCF2D" fill-opacity="1.000000" fill-rule="nonzero"/>
	<path id="Vector" d="M119.462 80.9785C119.462 82.207 118.593 83.2031 117.522 83.2031C116.45 83.2031 115.582 82.207 115.582 80.9785C115.582 79.748 116.45 78.752 117.522 78.752C118.593 78.752 119.462 79.748 119.462 80.9785Z" fill="#FFCF2D" fill-opacity="1.000000" fill-rule="evenodd"/>
	<path id="Vector" d="M136 80.9785C136 82.25 135.168 83.2031 134.06 83.2031C132.951 83.2031 132.12 82.25 132.12 80.9785C132.12 79.7051 132.951 78.752 134.06 78.752C135.076 78.752 136 79.7051 136 80.9785Z" fill="#FFCF2D" fill-opacity="1.000000" fill-rule="nonzero"/>
	<path id="Vector" d="M3.88037 96.7695C3.88037 98.041 3.04883 98.9941 1.94043 98.9941C0.831543 98.9941 0 98.041 0 96.7695C0 95.4961 0.831543 94.543 1.94043 94.543C3.04883 94.543 3.88037 95.4961 3.88037 96.7695Z" fill="#FFCF2D" fill-opacity="1.000000" fill-rule="nonzero"/>
	<path id="Vector" d="M20.4185 96.7695C20.4185 98.041 19.5869 98.9941 18.4785 98.9941C17.3696 98.9941 16.5381 98.041 16.5381 96.7695C16.5381 95.4961 17.3696 94.543 18.4785 94.543C19.4946 94.543 20.4185 95.4961 20.4185 96.7695Z" fill="#FFCF2D" fill-opacity="1.000000" fill-rule="nonzero"/>
	<path id="Vector" d="M36.8643 96.7695C36.8643 98.041 36.0327 98.9941 34.9243 98.9941C33.8154 98.9941 32.9839 98.041 32.9839 96.7695C32.9839 95.4961 33.8154 94.543 34.9243 94.543C36.0327 94.543 36.8643 95.4961 36.8643 96.7695Z" fill="#FFCF2D" fill-opacity="1.000000" fill-rule="nonzero"/>
	<path id="Vector" d="M53.4023 96.7695C53.4023 98.041 52.5708 98.9941 51.4624 98.9941C50.3535 98.9941 49.522 98.041 49.522 96.7695C49.522 95.4961 50.3535 94.543 51.4624 94.543C52.5708 94.543 53.4023 95.4961 53.4023 96.7695Z" fill="#FFCF2D" fill-opacity="1.000000" fill-rule="nonzero"/>
	<path id="Vector" d="M69.9399 96.7695C69.9399 98.041 69.1084 98.9941 68 98.9941C66.8911 98.9941 66.0596 98.041 66.0596 96.7695C66.0596 95.4961 66.8911 94.543 68 94.543C69.0161 94.543 69.9399 95.4961 69.9399 96.7695Z" fill="#FFCF2D" fill-opacity="1.000000" fill-rule="nonzero"/>
	<path id="Vector" d="M86.478 96.7695C86.478 98.041 85.6465 98.9941 84.5381 98.9941C83.4292 98.9941 82.5977 98.041 82.5977 96.7695C82.5977 95.4961 83.4292 94.543 84.5381 94.543C85.6465 94.543 86.478 95.4961 86.478 96.7695Z" fill="#FFCF2D" fill-opacity="1.000000" fill-rule="nonzero"/>
	<path id="Vector" d="M102.924 96.7695C102.924 98.041 102.092 98.9941 100.984 98.9941C99.875 98.9941 99.0435 98.041 99.0435 96.7695C99.0435 95.4961 99.875 94.543 100.984 94.543C102.092 94.543 102.924 95.4961 102.924 96.7695Z" fill="#FFCF2D" fill-opacity="1.000000" fill-rule="nonzero"/>
	<path id="Vector" d="M119.462 96.7695C119.462 98.041 118.63 98.9941 117.522 98.9941C116.413 98.9941 115.582 98.041 115.582 96.7695C115.582 95.4961 116.413 94.543 117.522 94.543C118.63 94.543 119.462 95.4961 119.462 96.7695Z" fill="#FFCF2D" fill-opacity="1.000000" fill-rule="nonzero"/>
	<path id="Vector" d="M136 96.7695C136 98.041 135.168 98.9941 134.06 98.9941C132.951 98.9941 132.12 98.041 132.12 96.7695C132.12 95.4961 132.951 94.543 134.06 94.543C135.076 94.543 136 95.4961 136 96.7695Z" fill="#FFCF2D" fill-opacity="1.000000" fill-rule="nonzero"/>
	<path id="Vector" d="M3.88037 112.457C3.88037 113.729 3.04883 114.682 1.94043 114.682C0.831543 114.682 0 113.729 0 112.457C0 111.184 0.831543 110.23 1.94043 110.23C3.04883 110.23 3.88037 111.291 3.88037 112.457Z" fill="#FFCF2D" fill-opacity="1.000000" fill-rule="nonzero"/>
	<path id="Vector" d="M20.4185 112.457C20.4185 113.729 19.5869 114.682 18.4785 114.682C17.3696 114.682 16.5381 113.729 16.5381 112.457C16.5381 111.184 17.3696 110.23 18.4785 110.23C19.4946 110.23 20.4185 111.291 20.4185 112.457Z" fill="#FFCF2D" fill-opacity="1.000000" fill-rule="nonzero"/>
	<path id="Vector" d="M36.8643 112.457C36.8643 113.729 36.0327 114.682 34.9243 114.682C33.8154 114.682 32.9839 113.729 32.9839 112.457C32.9839 111.184 33.8154 110.23 34.9243 110.23C36.0327 110.23 36.8643 111.291 36.8643 112.457Z" fill="#FFCF2D" fill-opacity="1.000000" fill-rule="nonzero"/>
	<path id="Vector" d="M53.4023 112.457C53.4023 113.729 52.5708 114.682 51.4624 114.682C50.3535 114.682 49.522 113.729 49.522 112.457C49.522 111.184 50.3535 110.23 51.4624 110.23C52.5708 110.23 53.4023 111.291 53.4023 112.457Z" fill="#FFCF2D" fill-opacity="1.000000" fill-rule="nonzero"/>
	<path id="Vector" d="M69.9399 112.457C69.9399 113.729 69.1084 114.682 68 114.682C66.8911 114.682 66.0596 113.729 66.0596 112.457C66.0596 111.184 66.8911 110.23 68 110.23C69.0161 110.23 69.9399 111.291 69.9399 112.457Z" fill="#FFCF2D" fill-opacity="1.000000" fill-rule="nonzero"/>
	<path id="Vector" d="M86.478 112.457C86.478 113.729 85.6465 114.682 84.5381 114.682C83.4292 114.682 82.5977 113.729 82.5977 112.457C82.5977 111.184 83.4292 110.23 84.5381 110.23C85.6465 110.23 86.478 111.291 86.478 112.457Z" fill="#FFCF2D" fill-opacity="1.000000" fill-rule="nonzero"/>
	<path id="Vector" d="M102.924 112.457C102.924 113.729 102.092 114.682 100.984 114.682C99.875 114.682 99.0435 113.729 99.0435 112.457C99.0435 111.184 99.875 110.23 100.984 110.23C102.092 110.23 102.924 111.291 102.924 112.457Z" fill="#FFCF2D" fill-opacity="1.000000" fill-rule="nonzero"/>
	<path id="Vector" d="M119.462 112.457C119.462 113.729 118.63 114.682 117.522 114.682C116.413 114.682 115.582 113.729 115.582 112.457C115.582 111.184 116.413 110.23 117.522 110.23C118.63 110.23 119.462 111.291 119.462 112.457Z" fill="#FFCF2D" fill-opacity="1.000000" fill-rule="nonzero"/>
	<path id="Vector" d="M136 112.457C136 113.729 135.168 114.682 134.06 114.682C132.951 114.682 132.12 113.729 132.12 112.457C132.12 111.184 132.951 110.23 134.06 110.23C135.076 110.23 136 111.291 136 112.457Z" fill="#FFCF2D" fill-opacity="1.000000" fill-rule="nonzero"/>
</svg>
