<svg width="242.000000" height="242.000000" viewBox="0 0 242 242" fill="none" xmlns="http://www.w3.org/2000/svg" xmlns:xlink="http://www.w3.org/1999/xlink">
	<desc>
			Created with Pixso.
	</desc>
	<defs>
		<clipPath id="clip2355_2270">
			<rect id="circles" width="242.000000" height="242.000000" fill="white" fill-opacity="0"/>
		</clipPath>
	</defs>
	<g opacity="0.120000">
		<g clip-path="url(#clip2355_2270)">
			<path id="Vector" d="M121.083 0C54.147 0 0 54.1465 0 121.084C0 187.854 54.147 242.166 121.083 242.166C187.853 242.166 242.166 188.02 242.166 121.084C242 54.1465 187.853 0 121.083 0ZM121.083 234.359C58.4653 234.359 7.80664 183.701 7.80664 121.084C7.80664 58.4648 58.4653 7.80664 121.083 7.80664C183.701 7.80664 234.36 58.4648 234.36 121.084C234.36 183.535 183.535 234.359 121.083 234.359Z" fill="#FFCF2D" fill-opacity="1.000000" fill-rule="nonzero"/>
			<path id="Vector" d="M121.083 26.0762C68.7632 26.0762 26.2432 68.5957 26.2432 120.916C26.2432 173.236 68.7632 215.756 121.083 215.756C173.403 215.756 215.923 173.402 215.923 121.082C215.923 68.5957 173.403 26.0762 121.083 26.0762ZM121.083 201.307C76.7358 201.307 40.6934 165.264 40.6934 120.916C40.6934 76.5684 76.7358 40.5273 121.083 40.5273C165.431 40.5273 201.473 76.5684 201.473 120.916C201.473 165.264 165.431 201.307 121.083 201.307Z" fill="#FFCF2D" fill-opacity="1.000000" fill-rule="nonzero"/>
		</g>
	</g>
</svg>
